<svg xmlns="http://www.w3.org/2000/svg" xmlns:xlink="http://www.w3.org/1999/xlink" viewBox="0 0 455.23 276.25"><defs><style>.a{fill:url(#a);}.b{fill:url(#b);}</style><linearGradient id="a" y1="63.08" x2="122.01" y2="63.08" gradientTransform="matrix(1, 0, 0, -1, 0, 162)" gradientUnits="userSpaceOnUse"><stop offset="0" stop-color="#4d4d4d"/><stop offset="1" stop-color="#818281"/></linearGradient><radialGradient id="b" cx="191.37" cy="-2063.02" r="156.03" gradientTransform="matrix(1, 0, 0, -0.84, 0, -1579.95)" gradientUnits="userSpaceOnUse"><stop offset="0.8" stop-color="#474848"/><stop offset="0.83" stop-color="#636363"/><stop offset="0.84" stop-color="#5c5c5c"/><stop offset="0.85" stop-color="#505050"/><stop offset="0.87" stop-color="#4c4c4c"/><stop offset="0.87" stop-color="#595959"/><stop offset="0.88" stop-color="#7d7d7d"/><stop offset="0.9" stop-color="#b6b6b6"/><stop offset="0.91" stop-color="#dbdbdb"/><stop offset="0.91" stop-color="#cdcdcd"/><stop offset="0.93" stop-color="#939393"/><stop offset="0.94" stop-color="#6f7070"/><stop offset="0.94" stop-color="#616262"/><stop offset="0.95" stop-color="#656666"/><stop offset="0.97" stop-color="#727373"/><stop offset="0.98" stop-color="#818281"/><stop offset="0.98" stop-color="#7f807f"/><stop offset="0.99" stop-color="#4a4c4b"/><stop offset="1" stop-color="#353837"/></radialGradient></defs><path class="a" d="M122,98.93a61,61,0,1,1-35.69-55.5A61,61,0,0,1,122,98.93Z"/><path class="b" d="M191.37,245.42c69,0,125.14-44.38,125.14-98.92S260.37,47.58,191.37,47.58c-29.17,0-56,7.92-77.34,21.2C84.94,86.91,66.23,115,66.23,146.5a78.79,78.79,0,0,0,1.1,13.1,61.49,61.49,0,0,1-31.65-5.17c-.19-2.62-.28-5.27-.28-7.93,0-35.27,16.61-68.23,46.86-92.75,3.14-2.56,6.4-5,9.75-7.29,27.88-19.25,62.69-29.71,99.36-29.71,41.07,0,79.83,13.12,109.11,37,30.22,24.52,46.85,57.48,46.85,92.75s-16.63,68.22-46.85,92.8c-29.28,23.82-68,36.95-109.11,36.95"/></svg>