<?xml version="1.0" encoding="UTF-8" standalone="no"?>
<!DOCTYPE svg PUBLIC "-//W3C//DTD SVG 1.1//EN" "http://www.w3.org/Graphics/SVG/1.1/DTD/svg11.dtd">
<svg xmlns="http://www.w3.org/2000/svg" xmlns:xlink="http://www.w3.org/1999/xlink" width="216.2" height="51.1"
    viewBox="0 31.5 2162 511">
    <!-- Source: https://www.etml.ch/templates/inetis/font/etml2.svg -->
    <!-- Edited by YBU -->
    <path fill="#004595" transform="scale(1, -1)" transform-origin="0"
        d="M-0.086 186.51c0.171-58.112 22.016-107.378 68.323-151.95 46.62-44.288 97.792-65.45 156.899-65.622h257.849v113.778h-257.877c-27.193-0.114-52.964 10.439-74.695 29.554-22.044 18.887-35.356 43.606-35.868 71.111v184.32l368.413-0.256v111.616h-483.043v-292.551zM198.286 184.946c0.313-4.438 1.024-6.884 6.969-12.060 6.315-4.95 12.060-6.884 19.882-7.054l257.849 0.284v115.171h-284.7v-96.341zM568.918 168.505h113.18v198.912h286.122v-198.912h112.925v310.557h-512.227v-310.557zM769.053-31.062h113.209v312.349h-113.209v-312.349zM1441.821 282.823h-75.975v-313.885h114.631v271.702c-0.142 10.98-3.442 19.996-11.69 29.781-7.965 8.875-15.161 12.174-26.966 12.402zM1676.458 241.977c-0.227 70.201-19.542 125.298-64.91 169.898-46.393 45.142-100.153 66.958-165.291 67.186h-278.983l-0.028-510.123h113.152v398.791c0 0 125.668 0 169.472 0.029 31.801 0 61.014-13.056 83.57-36.807 23.78-24.434 33.28-55.865 33.138-90.282l-0.028-271.702h109.938v270.45c-0.085 2.389-0.028 2.56-0.028 2.56zM1954.674 82.83c-18.546-0.057-36.38 6.94-51.456 19.058-15.502 12.118-25.344 30.378-25.060 49.721 0 0.995 0.028 1.678 0.028 1.11l-0.512 326.058h-113.18v-374.983c0.199-41.159 12.63-72.106 37.945-97.337 25.458-24.889 57.202-37.319 99.612-37.49h259.84v113.892h-207.218z" />
</svg>