<svg xmlns="http://www.w3.org/2000/svg" xmlns:xlink="http://www.w3.org/1999/xlink" viewBox="0 0 455.23 276.25"><defs><style>.a{fill:url(#a);}.b{fill:url(#b);}.c{fill:url(#c);}</style><linearGradient id="a" y1="62.38" x2="122" y2="62.38" gradientTransform="matrix(1, 0, 0, -1, 0, 162)" gradientUnits="userSpaceOnUse"><stop offset="0" stop-color="#4d4d4d"/><stop offset="1" stop-color="#818281"/></linearGradient><linearGradient id="b" x1="333.23" y1="62.37" x2="455.23" y2="62.37" xlink:href="#a"/><radialGradient id="c" cx="227.07" cy="-2077.99" r="195.88" gradientTransform="matrix(1, 0, 0, -0.84, 0, -1575.63)" gradientUnits="userSpaceOnUse"><stop offset="0.8" stop-color="#474848"/><stop offset="0.83" stop-color="#636363"/><stop offset="0.84" stop-color="#5c5c5c"/><stop offset="0.85" stop-color="#505050"/><stop offset="0.87" stop-color="#4c4c4c"/><stop offset="0.87" stop-color="#595959"/><stop offset="0.88" stop-color="#7d7d7d"/><stop offset="0.9" stop-color="#b6b6b6"/><stop offset="0.91" stop-color="#dbdbdb"/><stop offset="0.91" stop-color="#cdcdcd"/><stop offset="0.93" stop-color="#939393"/><stop offset="0.94" stop-color="#6f7070"/><stop offset="0.94" stop-color="#616262"/><stop offset="0.95" stop-color="#656666"/><stop offset="0.97" stop-color="#727373"/><stop offset="0.98" stop-color="#818281"/><stop offset="0.98" stop-color="#7f807f"/><stop offset="0.99" stop-color="#4a4c4b"/><stop offset="1" stop-color="#353837"/></radialGradient></defs><path class="a" d="M122,99.63a61,61,0,1,1-5.29-24.86A61,61,0,0,1,122,99.63Z"/><path class="b" d="M455.23,99.63a61,61,0,1,1-61-61A61,61,0,0,1,455.23,99.63Z"/><path class="c" d="M363.57,46.91c-.47-.4-.94-.78-1.42-1.17C325.9,16.24,277.92,0,227.07,0S128.25,16.24,92,45.74l-1,.8C56,75.41,36,113.47,34.13,154.39a61,61,0,0,0,38,5.21c.34-33,17.28-62.94,44.53-84.83,28.12-22.58,67.22-36.6,110.38-36.6,43.57,0,83,14.29,111.17,37.26C365,97.2,381.58,126.79,382,159.4a61.22,61.22,0,0,0,38-4.49C418.34,114,398.45,75.85,363.57,46.91Z"/></svg>